<?xml version="1.0" encoding="utf-8"?>
<!-- Generator: Adobe Illustrator 27.5.0, SVG Export Plug-In . SVG Version: 6.00 Build 0)  -->
<svg version="1.1" id="Capa_2" xmlns="http://www.w3.org/2000/svg" xmlns:xlink="http://www.w3.org/1999/xlink" x="0px" y="0px"
	 viewBox="0 0 1975 2279" style="enable-background:new 0 0 1975 2279;" xml:space="preserve">
<path style="fill:#F7A531;" d="M1073.946,1784.893c9.52-40.857,8.323-91.832,39.17-123.603
	c29.649-30.52,78.23-41.563,116.584-55.872c95.151-35.471,190.954-80.298,267.009-149.009
	c145.364-131.546,187.089-333.543,60.821-493.813c-53.802-68.329-123.548-114.626-201.072-145.798l-0.076-0.009
	c-38.548-5.206-77.707-6.308-116.538-5.325c-4.379,0.11-8.757,0.303-13.136,0.465c-57.184,2.104-114.242,8.436-170.663,19.056
	c-2.728,0.513-5.456,1.038-8.186,1.561c-19.127,3.642-38.284,7.271-57.669,7.54c-0.631,0.008-1.258,0.049-1.891,0.049
	c-2.809,0.002-5.615-0.072-8.418-0.21c-0.731-0.036-1.461-0.11-2.192-0.154c-15.585-0.948-31.066-3.762-46.506-6.684
	c-3.281-0.625-6.562-1.253-9.838-1.871c-13.735-2.551-27.509-4.834-41.307-6.903c-45.935-6.903-92.19-11.15-138.518-12.659
	c-2.418-0.079-4.841-0.127-7.262-0.19c-41.46-1.079-83.244,0.253-124.252,6.479c-4.643,0.704-9.275,1.474-13.896,2.308
	c-25.814,4.657-51.276,11.349-76.094,20.811c-16.114,6.156-31.925,13.63-47.208,22.268c-49.286,27.831-92.742,68.43-120.924,120.924
	c-1.474,2.743-2.987,5.457-4.378,8.264c-24.914,50.405-34.35,106.598-36.573,164.42c-1.969,51.02,1.675,103.298,5.253,153.962
	c11.838,167.585,22.848,345.468,110.425,482.092c4.551,7.099,9.331,13.978,14.229,20.742c0.446,0.616,0.913,1.209,1.362,1.822
	c4.31,5.888,8.744,11.645,13.301,17.279c1.019,1.263,2.06,2.503,3.091,3.753c4.048,4.898,8.181,9.7,12.406,14.404
	c1.338,1.493,2.674,2.986,4.03,4.46c4.108,4.458,8.303,8.813,12.563,13.094c1.014,1.02,1.97,2.108,2.992,3.119l1.438,1.366
	c2.229,2.182,4.509,4.301,6.776,6.436c2.223,2.088,4.439,4.176,6.692,6.212c3.025,2.744,6.089,5.432,9.174,8.098
	c0.592,0.509,1.168,1.048,1.761,1.554c0.514,0.441,1.053,0.847,1.569,1.286c4.459,3.783,8.973,7.488,13.548,11.109
	c1.354,1.073,2.709,2.139,4.073,3.197c4.212,3.264,8.468,6.455,12.767,9.584c1.689,1.232,3.377,2.463,5.079,3.673
	c4.07,2.89,8.183,5.706,12.325,8.478c1.913,1.282,3.819,2.574,5.747,3.831c4.066,2.65,8.176,5.218,12.302,7.757
	c1.997,1.228,3.98,2.477,5.99,3.679c4.265,2.552,8.574,5.013,12.896,7.45c1.868,1.053,3.718,2.137,5.595,3.168
	c4.908,2.697,9.859,5.289,14.828,7.84c1.278,0.655,2.542,1.346,3.823,1.992c12.788,6.45,25.767,12.398,38.86,17.919
	C825.933,1999.454,1033.797,1957.616,1073.946,1784.893z"/>
<path style="fill:#F18D15;" d="M1664.382,1182.508c-0.058-9.74-0.224-19.46-0.657-29.121c-2.611-57.993-12.676-114.191-38.3-164.459
	c-15.605-30.647-36.426-57.313-60.6-79.892c-31.783-29.686-69.373-52.289-108.648-67.43c-11.968-4.594-24.094-8.554-36.342-11.96
	l-0.551-0.159c-3.782-1.047-7.579-2.027-11.384-2.969l-1.279-0.324c-3.677-0.899-7.366-1.739-11.062-2.543
	c-0.558-0.122-1.116-0.25-1.675-0.37c-3.653-0.781-7.316-1.511-10.986-2.205c-0.581-0.11-1.161-0.224-1.743-0.332
	c-3.742-0.693-7.492-1.341-11.248-1.948l-1.328-0.215c-1.24-0.197-2.482-0.388-3.724-0.577v-98.662h-138.148v92.586
	c4.379-0.161,8.757-0.354,13.136-0.465c38.758-0.981,77.84,0.116,116.318,5.296l2.198,0.81
	c76.762,31.164,145.807,77.258,199.169,145.027c126.268,160.27,84.543,362.267-60.821,493.813
	c-76.055,68.71-171.858,113.538-267.009,149.009c-38.354,14.308-86.935,25.352-116.584,55.872
	c-30.847,31.771-29.65,82.746-39.17,123.603c-40.149,172.724-248.013,214.561-408.117,201.4l-0.012-0.001
	c0.06,0.025,0.12,0.047,0.181,0.073c6.359,2.692,12.717,5.281,19.078,7.706c7.641,2.931,15.309,5.713,22.991,8.417
	c2.071,0.729,4.146,1.431,6.22,2.144c5.792,1.99,11.595,3.912,17.408,5.773c2.202,0.705,4.402,1.423,6.609,2.11
	c7.561,2.355,15.135,4.629,22.727,6.766c1.031,0.29,2.066,0.548,3.097,0.834c6.614,1.835,13.24,3.58,19.874,5.251
	c2.612,0.658,5.226,1.286,7.84,1.919c5.388,1.302,10.782,2.547,16.182,3.741c2.502,0.553,5.001,1.123,7.505,1.653
	c7.481,1.582,14.972,3.083,22.473,4.459c1.706,0.313,3.417,0.579,5.123,0.881c6.07,1.073,12.143,2.086,18.223,3.024
	c2.698,0.416,5.399,0.809,8.099,1.199c5.517,0.796,11.04,1.531,16.565,2.215c2.359,0.292,4.717,0.608,7.077,0.879
	c7.621,0.877,15.247,1.662,22.878,2.327c1.683,0.147,3.368,0.251,5.05,0.387c6.233,0.504,12.469,0.943,18.707,1.305
	c2.427,0.141,4.854,0.267,7.282,0.386c6.17,0.304,12.342,0.539,18.515,0.704c1.731,0.046,3.463,0.117,5.194,0.153
	c7.95,0.162,15.899,0.217,23.849,0.148c1.226-0.01,2.451-0.049,3.676-0.065c6.867-0.089,13.732-0.265,20.595-0.527
	c1.833-0.07,3.665-0.145,5.498-0.227c7.379-0.331,14.757-0.742,22.131-1.271c0.561-0.04,1.121-0.068,1.682-0.109
	c8.453-0.624,16.9-1.378,25.34-2.264l1.277-0.144c7.893-0.841,15.781-1.804,23.661-2.874c0.49-0.066,0.981-0.111,1.471-0.179
	l1.195-0.185c17.838-2.472,35.616-5.538,53.329-9.174c1.63-0.335,3.258-0.676,4.887-1.021c17.642-3.733,35.22-8.034,52.726-12.959
	l1.238-0.326c41.073-29.051,75.075-66.861,97.327-115.333c17.571-38.245,26.276-80.026,34.002-121.155
	c8.104-43.522,26.33-67.622,66.152-86.609c71.105-33.838,136.17-61.474,191.009-120.393c12.566-13.492,24.209-27.746,34.926-42.706
	c0.106-0.676,0.192-1.358,0.298-2.035c0.822-5.276,1.569-10.577,2.326-15.875c0.662-4.636,1.328-9.27,1.945-13.921
	c0.586-4.413,1.136-8.838,1.683-13.262c0.667-5.382,1.32-10.765,1.936-16.16c0.487-4.272,0.958-8.548,1.416-12.826
	c0.562-5.25,1.108-10.5,1.63-15.756c0.477-4.808,0.952-9.616,1.4-14.427c0.383-4.107,0.753-8.212,1.117-12.319
	c0.558-6.301,1.117-12.601,1.638-18.9c0.085-1.027,0.168-2.052,0.251-3.079c2.182-26.65,4.085-53.249,6.011-79.593
	C1661.503,1271.477,1664.645,1226.687,1664.382,1182.508z"/>
<path style="fill:#E57F12;" d="M1601.76,1575.932c-54.839,58.918-119.904,86.554-191.009,120.393
	c-39.823,18.987-58.048,43.087-66.152,86.609c-7.726,41.129-16.43,82.91-34.002,121.155
	c-22.251,48.472-56.253,86.282-97.327,115.333c0.709-0.198,1.413-0.425,2.12-0.624c5.094-1.439,10.175-2.95,15.252-4.489
	c2.73-0.828,5.458-1.667,8.184-2.524c3.526-1.109,7.044-2.265,10.562-3.423c3.536-1.164,7.073-2.326,10.602-3.54
	c2.843-0.978,5.678-2.007,8.516-3.017c3.859-1.375,7.724-2.73,11.574-4.164c4.763-1.774,9.509-3.622,14.254-5.486
	c1.682-0.661,3.375-1.273,5.055-1.946c59.949-23.919,117.735-57.514,167.312-101.8c29.921-26.727,56.854-57.345,79.458-92.091
	c5.701-8.764,11.081-17.704,16.165-26.803c0.335-0.599,0.647-1.21,0.979-1.811c2.15-3.886,4.263-7.793,6.307-11.736
	c0.658-1.27,1.28-2.56,1.927-3.835c1.669-3.289,3.33-6.582,4.929-9.908c0.831-1.728,1.619-3.477,2.43-5.214
	c1.35-2.888,2.703-5.775,4.001-8.69c0.942-2.112,1.839-4.247,2.754-6.373c1.103-2.563,2.215-5.123,3.28-7.705
	c1.001-2.423,1.96-4.868,2.928-7.308c0.916-2.309,1.843-4.615,2.729-6.938c1.031-2.693,2.02-5.407,3.013-8.12
	c0.765-2.089,1.537-4.174,2.28-6.273c1.036-2.93,2.036-5.877,3.032-8.828c0.645-1.91,1.296-3.818,1.924-5.736
	c1.02-3.118,2.007-6.254,2.984-9.394c0.552-1.776,1.109-3.551,1.648-5.334c0.99-3.275,1.951-6.564,2.896-9.86
	c0.48-1.672,0.961-3.344,1.43-5.021c0.949-3.399,1.871-6.811,2.775-10.232c0.426-1.607,0.849-3.213,1.264-4.825
	c0.891-3.456,1.757-6.923,2.603-10.399c0.399-1.641,0.797-3.283,1.187-4.929c0.81-3.417,1.601-6.844,2.372-10.28
	c0.399-1.775,0.793-3.552,1.18-5.332c0.713-3.272,1.413-6.549,2.092-9.836c0.428-2.072,0.848-4.147,1.263-6.224
	c0.59-2.947,1.171-5.896,1.735-8.854c0.496-2.604,0.98-5.215,1.458-7.827c0.27-1.482,0.561-2.954,0.825-4.438
	c0.103-0.582,0.187-1.168,0.289-1.75c1.36-7.742,2.682-15.484,3.845-23.276C1625.969,1548.187,1614.326,1562.44,1601.76,1575.932z"
	/>
<path style="fill:#FFFFFF;" d="M873.671,957.433c-9.618-33.238-38.635-58.526-71.244-70.096
	c-32.611-11.571-68.409-10.951-102.564-5.407c-12.928,2.099-25.729,4.91-38.343,8.396
	c-80.704,22.307-153.728,72.253-203.055,139.993c-57.037,78.327-81.705,179.505-67.119,275.294
	c3.996,26.248,11.126,52.751,26.807,74.177c15.68,21.426,41.274,37.021,67.749,35.025c23.969-1.807,45.161-17.595,59.035-37.224
	c13.873-19.629,21.515-42.888,28.482-65.893c14.105-46.579,26.734-94.82,54.773-134.599c25.471-36.137,61.811-62.191,100.674-82.314
	C785.533,1065.443,900.475,1050.06,873.671,957.433z"/>
<path style="fill:#DB5F12;" d="M1081.845,1579.934c-0.052-1.13-0.168-2.27-0.351-3.416l-32.473-203.768l0.621-0.626
	c0.726-0.704,1.433-1.423,2.134-2.151c1.182-1.226,2.321-2.485,3.432-3.776c0.643-0.747,1.287-1.487,1.905-2.255
	c1.163-1.445,2.26-2.94,3.333-4.458c0.47-0.665,0.967-1.306,1.42-1.984c1.478-2.214,2.872-4.486,4.15-6.833l0.423-0.853
	c1.107-2.084,2.137-4.214,3.079-6.392c0.359-0.826,0.665-1.676,0.997-2.515c0.67-1.686,1.306-3.385,1.874-5.12
	c0.317-0.966,0.603-1.942,0.887-2.922c0.489-1.688,0.927-3.394,1.318-5.121c0.226-0.998,0.451-1.993,0.642-3.003
	c0.353-1.856,0.624-3.736,0.861-5.631c0.112-0.893,0.255-1.773,0.34-2.674c0.264-2.797,0.429-5.623,0.429-8.489v-0.002
	c0-10.09-1.748-19.752-4.828-28.8c-1.5-4.406-3.332-8.658-5.469-12.726c-2.136-4.068-4.574-7.952-7.286-11.621
	c-1.356-1.834-2.78-3.615-4.27-5.338c-14.889-17.233-36.234-28.719-60.295-30.665c-2.407-0.195-4.839-0.294-7.296-0.294
	c-2.819,0-5.598,0.166-8.35,0.421c-0.855,0.079-1.693,0.204-2.54,0.307c-1.921,0.234-3.824,0.517-5.706,0.871
	c-0.917,0.172-1.828,0.354-2.735,0.554c-1.898,0.419-3.768,0.907-5.619,1.445c-0.751,0.218-1.51,0.408-2.253,0.645
	c-2.533,0.809-5.026,1.707-7.458,2.73l-1.054,0.49c-2.072,0.904-4.104,1.88-6.09,2.933c-0.774,0.411-1.527,0.853-2.288,1.285
	c-1.565,0.89-3.101,1.819-4.605,2.798c-0.767,0.5-1.53,0.998-2.279,1.52l-1.396,0.932l0.22-0.051
	c7.335-1.945,15.037-2.989,22.983-2.989c49.4,0,89.443,40.045,89.443,89.444c0,29.839-12.056,55.5-34.516,71.749l23.837,149.576
	c2.926,18.344-11.247,34.953-29.823,34.953H893.137l-0.048,0.919c-0.042,0.552-0.073,1.1-0.085,1.647
	c-0.012,0.561-0.004,1.116,0.016,1.67c0.019,0.542,0.043,1.082,0.091,1.617c0.048,0.547,0.119,1.087,0.196,1.626
	c0.076,0.53,0.157,1.055,0.26,1.576c0.106,0.53,0.234,1.05,0.368,1.571c0.131,0.512,0.263,1.021,0.42,1.522
	c0.16,0.51,0.342,1.008,0.528,1.507c0.182,0.49,0.365,0.979,0.572,1.457c0.212,0.49,0.45,0.967,0.687,1.444l0.706,1.369l0.839,1.369
	l0.836,1.281l0.98,1.276l0.952,1.179l1.115,1.176l1.064,1.072l1.248,1.068l1.15,0.945l1.388,0.956l1.22,0.807
	c0.493,0.297,1.011,0.555,1.522,0.824l1.276,0.667c0.539,0.251,1.102,0.458,1.659,0.677l1.311,0.519
	c0.596,0.203,1.214,0.355,1.826,0.521l1.299,0.36c0.683,0.153,1.388,0.247,2.09,0.353l1.173,0.192
	c1.041,0.115,2.1,0.169,3.173,0.177l0.204,0.011h128.497c16.325,0,29.251-12.831,30.156-28.392
	C1081.887,1582.042,1081.894,1580.993,1081.845,1579.934z"/>
<path style="fill:#F7A531;" d="M734.259,584.9c0-125.392,110.454-227.405,246.225-227.405c135.77,0,246.225,102.013,246.225,227.405
	v134.443h138.148V584.9c0-196.87-172.429-357.033-384.373-357.033c-211.944,0-384.372,160.164-384.372,357.033v134.443h138.148
	V584.9z"/>
<path style="fill:#F18D15;" d="M734.259,811.464v-92.122H596.111v100.909c4.621-0.834,9.253-1.604,13.896-2.308
	C651.016,811.717,692.799,810.385,734.259,811.464z"/>
<path style="fill:#E86810;" d="M1013.179,1393.585c22.459-16.249,34.516-41.91,34.516-71.749c0-49.399-40.043-89.444-89.443-89.444
	c-7.946,0-15.868,1.095-23.203,3.04c-22.554,16.239-37.071,42.601-37.071,72.514c0,25.504,10.728,48.457,27.853,64.75
	l-32.482,203.822c-0.085,0.535-0.107,1.063-0.164,1.596h114.009c18.576,0,32.749-16.61,29.823-34.953L1013.179,1393.585z"/>
</svg>
